<?xml version="1.0" encoding="UTF-8" standalone="no"?>
<!-- Created with Inkscape (http://www.inkscape.org/) -->

<svg
   width="210mm"
   height="297mm"
   viewBox="0 0 210 297"
   version="1.1"
   id="svg5"
   xml:space="preserve"
   inkscape:version="1.2 (dc2aedaf03, 2022-05-15)"
   sodipodi:docname="icon.svg"
   xmlns:inkscape="http://www.inkscape.org/namespaces/inkscape"
   xmlns:sodipodi="http://sodipodi.sourceforge.net/DTD/sodipodi-0.dtd"
   xmlns:xlink="http://www.w3.org/1999/xlink"
   xmlns="http://www.w3.org/2000/svg"
   xmlns:svg="http://www.w3.org/2000/svg"><sodipodi:namedview
     id="namedview7"
     pagecolor="#505050"
     bordercolor="#eeeeee"
     borderopacity="1"
     inkscape:showpageshadow="0"
     inkscape:pageopacity="0"
     inkscape:pagecheckerboard="0"
     inkscape:deskcolor="#505050"
     inkscape:document-units="mm"
     showgrid="false"
     inkscape:zoom="2.0888418"
     inkscape:cx="280.7776"
     inkscape:cy="585.97064"
     inkscape:window-width="1920"
     inkscape:window-height="1009"
     inkscape:window-x="1912"
     inkscape:window-y="-8"
     inkscape:window-maximized="1"
     inkscape:current-layer="layer1" /><defs
     id="defs2"><linearGradient
       inkscape:collect="always"
       id="linearGradient425"><stop
         style="stop-color:#f09d51;stop-opacity:1;"
         offset="0.24533334"
         id="stop421" /><stop
         style="stop-color:#313638;stop-opacity:1;"
         offset="1"
         id="stop423" /></linearGradient><linearGradient
       inkscape:collect="always"
       xlink:href="#linearGradient425"
       id="linearGradient427"
       x1="93.542168"
       y1="141.99158"
       x2="118.54217"
       y2="166.99158"
       gradientUnits="userSpaceOnUse" /></defs><g
     inkscape:label="Ebene 1"
     inkscape:groupmode="layer"
     id="layer1"><rect
       style="fill:url(#linearGradient427);stroke-width:40;paint-order:fill markers stroke;fill-opacity:1"
       id="rect305"
       width="25"
       height="25"
       x="93.542168"
       y="141.99158"
       ry="2.700114"
       inkscape:export-filename="icon.png"
       inkscape:export-xdpi="96"
       inkscape:export-ydpi="96" /><g
       style="fill:#ffffff"
       id="g147"
       transform="matrix(0.48823929,-0.10780723,0.10780723,0.48823929,146.16308,144.18612)"><path
         d="m -94.798422,-9.1751918 h 24 V 14.824808 h -24 z"
         fill="none"
         id="path132" /><path
         d="m -74.798422,0.82480816 h -14.24 l -1.76,-3.52999996 v 11.53 h 16 z"
         opacity="0.3"
         id="path134"
         style="fill:#ffffff;fill-opacity:1" /><path
         d="m -92.788422,-3.1751918 -0.01,12 c 0,1.1 0.9,1.9999998 2,1.9999998 h 16 c 1.1,0 2,-0.8999998 2,-1.9999998 v -14 h -4 l 2,4 h -3 l -2,-4 h -2 l 2,4 h -3 l -2,-4 h -2 l 2,4 h -3 l -2,-4 h -1 c -1.1,0 -1.99,0.9 -1.99,2 z m 1.99,0.47 1.76,3.52999996 h 14.24 V 8.8248082 h -16 z"
         id="path136"
         style="stroke-width:1.00157;stroke-dasharray:none" /></g></g></svg>
